<?xml version="1.0" standalone="no"?>
<!DOCTYPE svg PUBLIC "-//W3C//DTD SVG 20010904//EN"
 "http://www.w3.org/TR/2001/REC-SVG-20010904/DTD/svg10.dtd">
<svg version="1.0" xmlns="http://www.w3.org/2000/svg"
 width="320.000000pt" height="320.000000pt" viewBox="0 0 320.000000 320.000000"
 preserveAspectRatio="xMidYMid meet">
<metadata>
Created by potrace 1.14, written by Peter Selinger 2001-2017
</metadata>
<g transform="translate(0.000000,320.000000) scale(0.100000,-0.100000)"
fill="#000000" stroke="none">
<path d="M0 1600 l0 -1600 1600 0 1600 0 0 1600 0 1600 -1600 0 -1600 0 0
-1600z m1445 513 c11 -10 15 -27 13 -45 -4 -27 -3 -28 34 -28 37 0 38 -1 38
-36 0 -31 -2 -35 -20 -29 -32 10 -70 -20 -70 -55 0 -36 38 -65 70 -55 19 6 21
3 18 -27 -3 -30 -6 -33 -39 -36 -32 -3 -36 -6 -31 -28 5 -29 -22 -64 -49 -64
-28 0 -51 30 -47 61 4 26 2 28 -31 31 -33 3 -36 6 -39 36 -3 30 -1 33 18 27
32 -10 70 19 70 55 0 35 -38 65 -70 55 -18 -6 -20 -2 -20 29 0 35 1 36 38 36
37 0 38 1 34 28 -4 32 19 62 48 62 10 0 26 -7 35 -17z m-210 -1419 c9 -9 13
-19 10 -22 -3 -3 -11 0 -17 6 -7 7 -23 12 -36 12 -35 0 -24 -32 15 -42 38 -10
47 -21 38 -48 -13 -40 -95 -33 -95 8 1 16 2 15 15 -1 16 -22 58 -19 63 4 2 12
-7 18 -32 23 -42 8 -59 42 -30 63 24 18 49 16 69 -3z m76 -24 c28 0 29 -1 27
-47 -1 -41 -2 -43 -5 -13 -3 19 -8 39 -13 44 -14 15 -38 -12 -43 -47 -2 -18
-4 0 -4 38 0 39 2 60 4 48 3 -18 11 -23 34 -23z m269 -25 c0 -36 -4 -65 -8
-65 -5 0 -8 28 -6 63 2 68 2 67 9 67 3 0 5 -29 5 -65z m40 55 c0 -5 -5 -10
-11 -10 -5 0 -7 5 -4 10 3 6 8 10 11 10 2 0 4 -4 4 -10z m185 -87 c4 -16 13
-23 30 -23 27 0 32 13 38 85 2 30 5 36 11 22 5 -9 5 -37 2 -62 -8 -53 -34 -73
-71 -57 -26 12 -32 37 -25 97 l5 40 2 -40 c2 -22 6 -50 8 -62z m220 87 c3 -5
1 -10 -4 -10 -6 0 -11 5 -11 10 0 6 2 10 4 10 3 0 8 -4 11 -10z m375 0 c0 -5
-5 -10 -11 -10 -5 0 -7 5 -4 10 3 6 8 10 11 10 2 0 4 -4 4 -10z m54 -32 c8 -5
7 -8 -1 -8 -8 0 -13 -14 -13 -35 0 -19 5 -35 11 -35 5 0 7 -5 4 -10 -11 -19
-25 1 -25 35 0 19 -4 37 -10 40 -6 4 -5 13 3 26 8 13 13 15 16 7 2 -7 9 -16
15 -20z m-1012 -23 c9 -19 8 -29 -6 -50 -19 -29 -38 -32 -60 -9 -19 18 -21 55
-4 72 21 21 57 14 70 -13z m100 0 c9 -19 8 -29 -6 -50 -19 -29 -38 -32 -60 -9
-19 18 -21 55 -4 72 21 21 57 14 70 -13z m78 -20 c0 -25 -4 -45 -10 -45 -5 0
-10 20 -10 45 0 25 5 45 10 45 6 0 10 -20 10 -45z m98 -2 c2 -26 -1 -43 -7
-43 -6 0 -11 18 -11 41 0 33 -3 40 -17 37 -13 -2 -19 -14 -21 -41 -4 -52 -22
-47 -22 7 l0 44 38 -1 c36 -2 37 -3 40 -44z m42 2 c0 -25 -4 -45 -10 -45 -5 0
-10 20 -10 45 0 25 5 45 10 45 6 0 10 -20 10 -45z m224 29 c9 -24 7 -74 -3
-74 -6 0 -11 17 -13 38 -2 25 -8 37 -18 37 -10 0 -16 -12 -18 -37 -4 -53 -22
-47 -22 7 0 44 0 45 34 45 22 0 36 -6 40 -16z m43 -34 c-2 -55 -17 -50 -17 6
0 25 4 43 9 39 5 -3 9 -23 8 -45z m38 20 c8 -38 18 -38 33 2 17 45 25 29 9
-17 -22 -63 -36 -58 -61 23 -4 12 -3 22 3 22 5 0 12 -13 16 -30z m145 11 c15
-29 13 -31 -25 -31 -19 0 -35 -5 -35 -10 0 -17 29 -23 45 -10 10 8 15 9 15 2
0 -6 -9 -16 -21 -22 -16 -9 -25 -8 -40 6 -33 30 -16 84 26 84 14 0 29 -8 35
-19z m57 1 c-8 -9 -17 -30 -20 -47 -3 -22 -4 -19 -6 15 -1 40 2 46 20 47 19 2
20 0 6 -15z m91 -2 c4 -12 2 -13 -9 -2 -7 6 -19 12 -26 12 -22 0 -14 -20 11
-30 13 -5 27 -13 30 -19 7 -11 -20 -41 -38 -41 -15 0 -36 20 -36 34 0 6 5 5
12 -2 16 -16 51 -16 46 1 -3 6 -13 14 -24 15 -27 5 -38 18 -30 37 7 20 57 17
64 -5z m42 -25 c0 -25 -4 -45 -10 -45 -5 0 -10 20 -10 45 0 25 5 45 10 45 6 0
10 -20 10 -45z m96 2 l11 -32 12 38 c7 20 16 37 21 37 5 0 -2 -28 -16 -62 -13
-34 -24 -63 -24 -65 0 -2 -7 -3 -16 -3 -14 0 -14 2 0 15 13 14 13 20 0 56 -7
23 -14 46 -14 52 0 17 14 -3 26 -36z m-1017 -105 c-1 -16 -2 -16 -6 0 -3 11
-11 15 -21 12 -14 -5 -14 -4 -2 4 18 13 30 6 29 -16z m-599 -6 c0 -6 -13 -11
-28 -11 -18 0 -28 5 -28 15 0 12 8 15 28 12 15 -2 28 -9 28 -16z m205 14 c6
-1 13 -2 17 -1 4 0 4 -7 1 -16 -4 -9 -8 -13 -10 -7 -2 5 -18 8 -36 7 -33 -2
-62 -2 -129 -3 -52 -1 -48 18 5 22 44 3 135 2 152 -2z m272 -12 c-3 -8 -6 -5
-6 6 -1 11 2 17 5 13 3 -3 4 -12 1 -19z m43 7 c0 -8 -2 -15 -4 -15 -2 0 -6 7
-10 15 -3 8 -1 15 4 15 6 0 10 -7 10 -15z m30 -6 c0 -11 -4 -17 -10 -14 -5 3
-10 13 -10 21 0 8 5 14 10 14 6 0 10 -9 10 -21z m186 2 c-4 -5 -15 -8 -26 -6
-11 2 -20 0 -20 -5 0 -6 -9 -6 -22 -1 -13 4 -29 6 -35 4 -7 -3 -13 0 -13 6 0
5 26 11 58 13 65 3 66 3 58 -11z m-871 -1 c3 -5 1 -10 -4 -10 -6 0 -11 5 -11
10 0 6 2 10 4 10 3 0 8 -4 11 -10z m65 3 c0 -5 -11 -9 -25 -9 -14 -1 -25 2
-25 7 0 5 11 9 25 9 14 0 25 -3 25 -7z m330 -7 c0 7 34 11 100 11 55 1 100 -3
100 -7 0 -4 -21 -6 -47 -5 -27 0 -61 -2 -77 -7 -19 -5 -32 -4 -37 3 -5 8 -12
8 -26 0 -21 -11 -33 -6 -33 13 0 6 5 4 10 -4 5 -8 10 -10 10 -4z"/>
<path d="M1384 646 c-10 -26 0 -51 21 -51 16 0 20 7 20 30 0 33 -30 49 -41 21z"/>
<path d="M1487 654 c-4 -4 -7 -20 -7 -36 0 -25 4 -29 23 -26 17 2 22 10 22 33
0 29 -22 45 -38 29z"/>
<path d="M2157 654 c-14 -14 -6 -24 19 -24 16 0 24 5 22 13 -5 14 -31 21 -41
11z"/>
</g>
</svg>
